<svg id="visual" viewBox="0 0 900 600" width="900" height="600" xmlns="http://www.w3.org/2000/svg" xmlns:xlink="http://www.w3.org/1999/xlink" version="1.1"><path d="M0 463L100 463L100 477L200 477L200 465L300 465L300 456L400 456L400 476L500 476L500 447L600 447L600 481L700 481L700 472L800 472L800 453L900 453L900 457L900 601L900 601L800 601L800 601L700 601L700 601L600 601L600 601L500 601L500 601L400 601L400 601L300 601L300 601L200 601L200 601L100 601L100 601L0 601Z" fill="#9900ff"></path><path d="M0 484L100 484L100 490L200 490L200 476L300 476L300 499L400 499L400 466L500 466L500 488L600 488L600 470L700 470L700 477L800 477L800 481L900 481L900 477L900 601L900 601L800 601L800 601L700 601L700 601L600 601L600 601L500 601L500 601L400 601L400 601L300 601L300 601L200 601L200 601L100 601L100 601L0 601Z" fill="#8e00ec"></path><path d="M0 501L100 501L100 514L200 514L200 490L300 490L300 517L400 517L400 497L500 497L500 491L600 491L600 511L700 511L700 498L800 498L800 510L900 510L900 485L900 601L900 601L800 601L800 601L700 601L700 601L600 601L600 601L500 601L500 601L400 601L400 601L300 601L300 601L200 601L200 601L100 601L100 601L0 601Z" fill="#8200d9"></path><path d="M0 528L100 528L100 522L200 522L200 532L300 532L300 526L400 526L400 511L500 511L500 516L600 516L600 509L700 509L700 512L800 512L800 510L900 510L900 526L900 601L900 601L800 601L800 601L700 601L700 601L600 601L600 601L500 601L500 601L400 601L400 601L300 601L300 601L200 601L200 601L100 601L100 601L0 601Z" fill="#7700c6"></path><path d="M0 526L100 526L100 552L200 552L200 524L300 524L300 526L400 526L400 547L500 547L500 531L600 531L600 541L700 541L700 551L800 551L800 532L900 532L900 547L900 601L900 601L800 601L800 601L700 601L700 601L600 601L600 601L500 601L500 601L400 601L400 601L300 601L300 601L200 601L200 601L100 601L100 601L0 601Z" fill="#6c00b4"></path><path d="M0 569L100 569L100 551L200 551L200 566L300 566L300 555L400 555L400 565L500 565L500 546L600 546L600 559L700 559L700 546L800 546L800 563L900 563L900 551L900 601L900 601L800 601L800 601L700 601L700 601L600 601L600 601L500 601L500 601L400 601L400 601L300 601L300 601L200 601L200 601L100 601L100 601L0 601Z" fill="#6100a2"></path><path d="M0 578L100 578L100 579L200 579L200 565L300 565L300 588L400 588L400 582L500 582L500 572L600 572L600 578L700 578L700 568L800 568L800 571L900 571L900 567L900 601L900 601L800 601L800 601L700 601L700 601L600 601L600 601L500 601L500 601L400 601L400 601L300 601L300 601L200 601L200 601L100 601L100 601L0 601Z" fill="#560090"></path></svg>