<svg id="visual" viewBox="0 0 900 700" width="900" height="700" xmlns="http://www.w3.org/2000/svg" xmlns:xlink="http://www.w3.org/1999/xlink" version="1.1"><path d="M0 247L21.5 237.8C43 228.7 86 210.3 128.8 202C171.7 193.7 214.3 195.3 257.2 202.5C300 209.7 343 222.3 385.8 221C428.7 219.7 471.3 204.3 514.2 195.8C557 187.3 600 185.7 642.8 185.5C685.7 185.3 728.3 186.7 771.2 185.7C814 184.7 857 181.3 878.5 179.7L900 178L900 0L878.5 0C857 0 814 0 771.2 0C728.3 0 685.7 0 642.8 0C600 0 557 0 514.2 0C471.3 0 428.7 0 385.8 0C343 0 300 0 257.2 0C214.3 0 171.7 0 128.8 0C86 0 43 0 21.5 0L0 0Z" fill="#fa7268"></path><path d="M0 136L21.5 142C43 148 86 160 128.8 161.2C171.7 162.3 214.3 152.7 257.2 144.5C300 136.3 343 129.7 385.8 127.8C428.7 126 471.3 129 514.2 132.2C557 135.3 600 138.7 642.8 143.8C685.7 149 728.3 156 771.2 159C814 162 857 161 878.5 160.5L900 160L900 0L878.5 0C857 0 814 0 771.2 0C728.3 0 685.7 0 642.8 0C600 0 557 0 514.2 0C471.3 0 428.7 0 385.8 0C343 0 300 0 257.2 0C214.3 0 171.7 0 128.8 0C86 0 43 0 21.5 0L0 0Z" fill="#ef5f67"></path><path d="M0 152L21.5 149C43 146 86 140 128.8 134.5C171.7 129 214.3 124 257.2 128.2C300 132.3 343 145.7 385.8 147.8C428.7 150 471.3 141 514.2 135.5C557 130 600 128 642.8 126.2C685.7 124.3 728.3 122.7 771.2 126.7C814 130.7 857 140.3 878.5 145.2L900 150L900 0L878.5 0C857 0 814 0 771.2 0C728.3 0 685.7 0 642.8 0C600 0 557 0 514.2 0C471.3 0 428.7 0 385.8 0C343 0 300 0 257.2 0C214.3 0 171.7 0 128.8 0C86 0 43 0 21.5 0L0 0Z" fill="#e34c67"></path><path d="M0 74L21.5 76.8C43 79.7 86 85.3 128.8 90.7C171.7 96 214.3 101 257.2 96.8C300 92.7 343 79.3 385.8 80.2C428.7 81 471.3 96 514.2 94.5C557 93 600 75 642.8 73.3C685.7 71.7 728.3 86.3 771.2 95.3C814 104.3 857 107.7 878.5 109.3L900 111L900 0L878.5 0C857 0 814 0 771.2 0C728.3 0 685.7 0 642.8 0C600 0 557 0 514.2 0C471.3 0 428.7 0 385.8 0C343 0 300 0 257.2 0C214.3 0 171.7 0 128.8 0C86 0 43 0 21.5 0L0 0Z" fill="#d53867"></path><path d="M0 53L21.5 48.7C43 44.3 86 35.7 128.8 34C171.7 32.3 214.3 37.7 257.2 41C300 44.3 343 45.7 385.8 42.8C428.7 40 471.3 33 514.2 32.8C557 32.7 600 39.3 642.8 46.3C685.7 53.3 728.3 60.7 771.2 58.7C814 56.7 857 45.3 878.5 39.7L900 34L900 0L878.5 0C857 0 814 0 771.2 0C728.3 0 685.7 0 642.8 0C600 0 557 0 514.2 0C471.3 0 428.7 0 385.8 0C343 0 300 0 257.2 0C214.3 0 171.7 0 128.8 0C86 0 43 0 21.5 0L0 0Z" fill="#c62368"></path></svg>