<svg id="visual" viewBox="0 0 900 600" width="900" height="600" xmlns="http://www.w3.org/2000/svg" xmlns:xlink="http://www.w3.org/1999/xlink" version="1.1"><path d="M0 126L90 126L90 151L180 151L180 127L270 127L270 120L360 120L360 140L450 140L450 135L540 135L540 119L630 119L630 152L720 152L720 138L810 138L810 135L900 135L900 118L900 0L900 0L810 0L810 0L720 0L720 0L630 0L630 0L540 0L540 0L450 0L450 0L360 0L360 0L270 0L270 0L180 0L180 0L90 0L90 0L0 0Z" fill="#9900ff"></path><path d="M0 100L90 100L90 111L180 111L180 117L270 117L270 125L360 125L360 105L450 105L450 103L540 103L540 108L630 108L630 128L720 128L720 99L810 99L810 99L900 99L900 123L900 0L900 0L810 0L810 0L720 0L720 0L630 0L630 0L540 0L540 0L450 0L450 0L360 0L360 0L270 0L270 0L180 0L180 0L90 0L90 0L0 0Z" fill="#8b00e8"></path><path d="M0 84L90 84L90 84L180 84L180 92L270 92L270 92L360 92L360 83L450 83L450 75L540 75L540 87L630 87L630 96L720 96L720 101L810 101L810 91L900 91L900 81L900 0L900 0L810 0L810 0L720 0L720 0L630 0L630 0L540 0L540 0L450 0L450 0L360 0L360 0L270 0L270 0L180 0L180 0L90 0L90 0L0 0Z" fill="#7e00d1"></path><path d="M0 73L90 73L90 66L180 66L180 81L270 81L270 58L360 58L360 59L450 59L450 65L540 65L540 69L630 69L630 78L720 78L720 63L810 63L810 68L900 68L900 74L900 0L900 0L810 0L810 0L720 0L720 0L630 0L630 0L540 0L540 0L450 0L450 0L360 0L360 0L270 0L270 0L180 0L180 0L90 0L90 0L0 0Z" fill="#7000bb"></path><path d="M0 47L90 47L90 41L180 41L180 40L270 40L270 44L360 44L360 52L450 52L450 57L540 57L540 56L630 56L630 38L720 38L720 42L810 42L810 42L900 42L900 56L900 0L900 0L810 0L810 0L720 0L720 0L630 0L630 0L540 0L540 0L450 0L450 0L360 0L360 0L270 0L270 0L180 0L180 0L90 0L90 0L0 0Z" fill="#6300a5"></path><path d="M0 16L90 16L90 17L180 17L180 15L270 15L270 30L360 30L360 32L450 32L450 27L540 27L540 33L630 33L630 24L720 24L720 33L810 33L810 18L900 18L900 19L900 0L900 0L810 0L810 0L720 0L720 0L630 0L630 0L540 0L540 0L450 0L450 0L360 0L360 0L270 0L270 0L180 0L180 0L90 0L90 0L0 0Z" fill="#560090"></path></svg>