<svg id="visual" viewBox="0 0 900 675" width="900" height="675" xmlns="http://www.w3.org/2000/svg" xmlns:xlink="http://www.w3.org/1999/xlink" version="1.1"><rect x="0" y="0" width="900" height="675" fill="#0a1423"></rect><path d="M0 493L21.5 496.2C43 499.3 86 505.7 128.8 508.3C171.7 511 214.3 510 257.2 510.3C300 510.7 343 512.3 385.8 516.2C428.7 520 471.3 526 514.2 522.8C557 519.7 600 507.3 642.8 496.5C685.7 485.7 728.3 476.3 771.2 473.5C814 470.7 857 474.3 878.5 476.2L900 478L900 676L878.5 676C857 676 814 676 771.2 676C728.3 676 685.7 676 642.8 676C600 676 557 676 514.2 676C471.3 676 428.7 676 385.8 676C343 676 300 676 257.2 676C214.3 676 171.7 676 128.8 676C86 676 43 676 21.5 676L0 676Z" fill="#fa7268"></path><path d="M0 492L21.5 503.2C43 514.3 86 536.7 128.8 544.8C171.7 553 214.3 547 257.2 538.7C300 530.3 343 519.7 385.8 519.7C428.7 519.7 471.3 530.3 514.2 536.7C557 543 600 545 642.8 539.3C685.7 533.7 728.3 520.3 771.2 516.3C814 512.3 857 517.7 878.5 520.3L900 523L900 676L878.5 676C857 676 814 676 771.2 676C728.3 676 685.7 676 642.8 676C600 676 557 676 514.2 676C471.3 676 428.7 676 385.8 676C343 676 300 676 257.2 676C214.3 676 171.7 676 128.8 676C86 676 43 676 21.5 676L0 676Z" fill="#ef5f67"></path><path d="M0 582L21.5 580.7C43 579.3 86 576.7 128.8 576.3C171.7 576 214.3 578 257.2 575.7C300 573.3 343 566.7 385.8 560.8C428.7 555 471.3 550 514.2 550.5C557 551 600 557 642.8 559.8C685.7 562.7 728.3 562.3 771.2 560.3C814 558.3 857 554.7 878.5 552.8L900 551L900 676L878.5 676C857 676 814 676 771.2 676C728.3 676 685.7 676 642.8 676C600 676 557 676 514.2 676C471.3 676 428.7 676 385.8 676C343 676 300 676 257.2 676C214.3 676 171.7 676 128.8 676C86 676 43 676 21.5 676L0 676Z" fill="#e34c67"></path><path d="M0 623L21.5 614.8C43 606.7 86 590.3 128.8 587.5C171.7 584.7 214.3 595.3 257.2 597.7C300 600 343 594 385.8 593.7C428.7 593.3 471.3 598.7 514.2 598.3C557 598 600 592 642.8 593.7C685.7 595.3 728.3 604.7 771.2 609.8C814 615 857 616 878.5 616.5L900 617L900 676L878.5 676C857 676 814 676 771.2 676C728.3 676 685.7 676 642.8 676C600 676 557 676 514.2 676C471.3 676 428.7 676 385.8 676C343 676 300 676 257.2 676C214.3 676 171.7 676 128.8 676C86 676 43 676 21.5 676L0 676Z" fill="#d53867"></path><path d="M0 618L21.5 619.5C43 621 86 624 128.8 629C171.7 634 214.3 641 257.2 642.3C300 643.7 343 639.3 385.8 638.7C428.7 638 471.3 641 514.2 636.3C557 631.7 600 619.3 642.8 618.8C685.7 618.3 728.3 629.7 771.2 629.8C814 630 857 619 878.5 613.5L900 608L900 676L878.5 676C857 676 814 676 771.2 676C728.3 676 685.7 676 642.8 676C600 676 557 676 514.2 676C471.3 676 428.7 676 385.8 676C343 676 300 676 257.2 676C214.3 676 171.7 676 128.8 676C86 676 43 676 21.5 676L0 676Z" fill="#c62368"></path></svg>